<svg width="435" height="100" viewBox="0 0 435 100" fill="none" xmlns="http://www.w3.org/2000/svg">
<path d="M67.548 63L74.244 36.72H79.356L86.052 63H82.128L80.544 56.34H73.092L71.508 63H67.548ZM73.812 53.136H79.788L77.988 45.54C77.676 44.196 77.412 43.032 77.196 42.048C77.004 41.04 76.872 40.356 76.8 39.996C76.728 40.356 76.596 41.04 76.404 42.048C76.212 43.032 75.948 44.184 75.612 45.504L73.812 53.136ZM91.2579 63V43.2H95.0019V46.98H95.9379L94.7499 49.32C94.7499 47.184 95.2179 45.576 96.1539 44.496C97.0899 43.392 98.4819 42.84 100.33 42.84C102.442 42.84 104.11 43.5 105.334 44.82C106.582 46.116 107.206 47.904 107.206 50.184V51.516H103.21V50.508C103.21 49.092 102.85 48.012 102.13 47.268C101.434 46.5 100.45 46.116 99.1779 46.116C97.9059 46.116 96.9099 46.5 96.1899 47.268C95.4939 48.036 95.1459 49.116 95.1459 50.508V63H91.2579ZM122.132 63C120.332 63 118.928 62.508 117.92 61.524C116.912 60.54 116.408 59.172 116.408 57.42V46.728H110.936V43.2H116.408V37.62H120.296V43.2H128.036V46.728H120.296V57.42C120.296 58.788 120.956 59.472 122.276 59.472H127.676V63H122.132ZM133.782 63V36.72H137.67V43.2L137.634 46.98H138.57L137.634 47.88C137.634 46.296 138.102 45.06 139.038 44.172C139.974 43.284 141.27 42.84 142.926 42.84C144.894 42.84 146.466 43.476 147.642 44.748C148.818 45.996 149.406 47.688 149.406 49.824V63H145.518V50.256C145.518 48.96 145.17 47.952 144.474 47.232C143.778 46.512 142.83 46.152 141.63 46.152C140.406 46.152 139.434 46.536 138.714 47.304C138.018 48.048 137.67 49.116 137.67 50.508V63H133.782ZM163.108 63.36C160.732 63.36 158.836 62.676 157.42 61.308C156.004 59.916 155.296 58.032 155.296 55.656V43.2H159.184V55.656C159.184 57.024 159.532 58.092 160.228 58.86C160.924 59.604 161.884 59.976 163.108 59.976C164.356 59.976 165.328 59.604 166.024 58.86C166.744 58.092 167.104 57.024 167.104 55.656V43.2H170.992V55.656C170.992 58.032 170.272 59.916 168.832 61.308C167.416 62.676 165.508 63.36 163.108 63.36ZM177.602 63V43.2H181.346V46.98H182.282L181.094 49.32C181.094 47.184 181.562 45.576 182.498 44.496C183.434 43.392 184.826 42.84 186.674 42.84C188.786 42.84 190.454 43.5 191.678 44.82C192.926 46.116 193.55 47.904 193.55 50.184V51.516H189.554V50.508C189.554 49.092 189.194 48.012 188.474 47.268C187.778 46.5 186.794 46.116 185.522 46.116C184.25 46.116 183.254 46.5 182.534 47.268C181.838 48.036 181.49 49.116 181.49 50.508V63H177.602ZM218.65 63L225.346 36.72H230.458L237.154 63H233.23L231.646 56.34H224.194L222.61 63H218.65ZM224.914 53.136H230.89L229.09 45.54C228.778 44.196 228.514 43.032 228.298 42.048C228.106 41.04 227.974 40.356 227.902 39.996C227.83 40.356 227.698 41.04 227.506 42.048C227.314 43.032 227.05 44.184 226.714 45.504L224.914 53.136ZM241.712 63V43.2H245.564V46.98H246.5L245.564 47.88C245.564 46.296 246.032 45.06 246.968 44.172C247.904 43.284 249.2 42.84 250.856 42.84C252.824 42.84 254.396 43.476 255.572 44.748C256.748 45.996 257.336 47.688 257.336 49.824V63H253.448V50.256C253.448 48.96 253.1 47.964 252.404 47.268C251.708 46.572 250.76 46.224 249.56 46.224C248.336 46.224 247.364 46.596 246.644 47.34C245.948 48.06 245.6 49.116 245.6 50.508V63H241.712ZM269.669 63.36C267.677 63.36 266.081 62.688 264.881 61.344C263.681 60 263.081 58.188 263.081 55.908V50.328C263.081 48.024 263.681 46.2 264.881 44.856C266.081 43.512 267.677 42.84 269.669 42.84C271.301 42.84 272.597 43.296 273.557 44.208C274.517 45.096 274.997 46.32 274.997 47.88L274.169 46.98H275.069L274.961 42.372V36.72H278.849V63H274.997V59.22H274.169L274.997 58.32C274.997 59.88 274.517 61.116 273.557 62.028C272.597 62.916 271.301 63.36 269.669 63.36ZM271.001 59.976C272.225 59.976 273.185 59.604 273.881 58.86C274.601 58.092 274.961 57.036 274.961 55.692V50.508C274.961 49.164 274.601 48.12 273.881 47.376C273.185 46.608 272.225 46.224 271.001 46.224C269.729 46.224 268.733 46.596 268.013 47.34C267.293 48.06 266.933 49.116 266.933 50.508V55.692C266.933 57.084 267.293 58.152 268.013 58.896C268.733 59.616 269.729 59.976 271.001 59.976ZM285.531 63V43.2H289.275V46.98H290.211L289.023 49.32C289.023 47.184 289.491 45.576 290.427 44.496C291.363 43.392 292.755 42.84 294.603 42.84C296.715 42.84 298.383 43.5 299.607 44.82C300.855 46.116 301.479 47.904 301.479 50.184V51.516H297.483V50.508C297.483 49.092 297.123 48.012 296.403 47.268C295.707 46.5 294.723 46.116 293.451 46.116C292.179 46.116 291.183 46.5 290.463 47.268C289.767 48.036 289.419 49.116 289.419 50.508V63H285.531ZM312.265 63.36C310.201 63.36 308.569 62.832 307.369 61.776C306.193 60.696 305.605 59.232 305.605 57.384C305.605 55.512 306.229 54.048 307.477 52.992C308.749 51.912 310.489 51.372 312.697 51.372H318.205V49.536C318.205 48.456 317.869 47.616 317.197 47.016C316.525 46.416 315.577 46.116 314.353 46.116C313.273 46.116 312.373 46.356 311.653 46.836C310.933 47.292 310.513 47.904 310.393 48.672H306.577C306.793 46.896 307.609 45.48 309.025 44.424C310.465 43.368 312.277 42.84 314.461 42.84C316.813 42.84 318.673 43.44 320.041 44.64C321.409 45.816 322.093 47.424 322.093 49.464V63H318.313V59.364H317.665L318.313 58.644C318.313 60.084 317.761 61.236 316.657 62.1C315.553 62.94 314.089 63.36 312.265 63.36ZM313.417 60.372C314.809 60.372 315.949 60.024 316.837 59.328C317.749 58.608 318.205 57.696 318.205 56.592V54H312.769C311.761 54 310.957 54.276 310.357 54.828C309.781 55.38 309.493 56.136 309.493 57.096C309.493 58.104 309.841 58.908 310.537 59.508C311.233 60.084 312.193 60.372 313.417 60.372ZM334.427 63.36C332.435 63.36 330.839 62.688 329.639 61.344C328.439 60 327.839 58.188 327.839 55.908V50.328C327.839 48.024 328.439 46.2 329.639 44.856C330.839 43.512 332.435 42.84 334.427 42.84C336.059 42.84 337.355 43.296 338.315 44.208C339.275 45.096 339.755 46.32 339.755 47.88L338.927 46.98H339.827L339.719 42.372V36.72H343.607V63H339.755V59.22H338.927L339.755 58.32C339.755 59.88 339.275 61.116 338.315 62.028C337.355 62.916 336.059 63.36 334.427 63.36ZM335.759 59.976C336.983 59.976 337.943 59.604 338.639 58.86C339.359 58.092 339.719 57.036 339.719 55.692V50.508C339.719 49.164 339.359 48.12 338.639 47.376C337.943 46.608 336.983 46.224 335.759 46.224C334.487 46.224 333.491 46.596 332.771 47.34C332.051 48.06 331.691 49.116 331.691 50.508V55.692C331.691 57.084 332.051 58.152 332.771 58.896C333.491 59.616 334.487 59.976 335.759 59.976ZM357.417 63.36C355.809 63.36 354.393 63.048 353.169 62.424C351.969 61.776 351.045 60.876 350.397 59.724C349.749 58.572 349.425 57.228 349.425 55.692V50.508C349.425 48.948 349.749 47.604 350.397 46.476C351.045 45.324 351.969 44.436 353.169 43.812C354.393 43.164 355.809 42.84 357.417 42.84C359.049 42.84 360.465 43.164 361.665 43.812C362.865 44.436 363.789 45.324 364.437 46.476C365.085 47.604 365.409 48.948 365.409 50.508V54.036H353.169V55.692C353.169 57.156 353.529 58.272 354.249 59.04C354.993 59.808 356.061 60.192 357.453 60.192C358.581 60.192 359.493 60 360.189 59.616C360.885 59.208 361.317 58.62 361.485 57.852H365.337C365.049 59.532 364.185 60.876 362.745 61.884C361.305 62.868 359.529 63.36 357.417 63.36ZM361.665 51.696V50.472C361.665 49.032 361.305 47.916 360.585 47.124C359.865 46.332 358.809 45.936 357.417 45.936C356.049 45.936 354.993 46.332 354.249 47.124C353.529 47.916 353.169 49.044 353.169 50.508V51.408L361.953 51.372L361.665 51.696Z" fill="#CBA6F7"/>
</svg>
