<svg width="24" height="19" viewBox="0 0 24 19" fill="none" xmlns="http://www.w3.org/2000/svg">
<path d="M20.317 1.51646C18.761 0.80222 17.119 0.292902 15.4319 0.001257C15.4166 -0.00160203 15.4007 0.000444576 15.3867 0.00710541C15.3726 0.0137662 15.3609 0.0247021 15.3534 0.0383571C15.1424 0.413657 14.9087 0.903157 14.7451 1.28786C12.9004 1.01166 11.0651 1.01166 9.2583 1.28786C9.0947 0.894557 8.8525 0.413657 8.6406 0.0383571C8.63276 0.0250132 8.62107 0.014345 8.60706 0.00774461C8.59306 0.00114425 8.57739 -0.00108161 8.5621 0.00135713C6.87488 0.292324 5.2327 0.801599 3.6769 1.51636C3.66359 1.52204 3.65238 1.53172 3.6448 1.54406C0.533404 6.19246 -0.318996 10.7266 0.099204 15.2045C0.100386 15.2154 0.103757 15.226 0.109116 15.2357C0.114476 15.2453 0.121714 15.2538 0.130404 15.2606C2.1832 16.7682 4.1717 17.6834 6.1233 18.29C6.13848 18.2945 6.15468 18.2943 6.16972 18.2893C6.18477 18.2844 6.19795 18.275 6.2075 18.2624C6.6691 17.632 7.0806 16.9672 7.4335 16.2682C7.43835 16.2586 7.44112 16.2481 7.44163 16.2374C7.44213 16.2267 7.44036 16.216 7.43643 16.206C7.4325 16.196 7.4265 16.1869 7.41883 16.1794C7.41115 16.1719 7.40198 16.1662 7.3919 16.1625C6.7391 15.9149 6.1176 15.613 5.5197 15.2702C5.5088 15.2638 5.49964 15.2548 5.49304 15.244C5.48643 15.2332 5.48258 15.221 5.48183 15.2083C5.48108 15.1957 5.48345 15.1831 5.48873 15.1716C5.49401 15.1601 5.50204 15.1501 5.5121 15.1425C5.6379 15.0482 5.7638 14.9502 5.8839 14.8511C5.89458 14.8423 5.9075 14.8366 5.92121 14.8348C5.93492 14.8329 5.94887 14.8349 5.9615 14.8406C9.8893 16.6339 14.1415 16.6339 18.0229 14.8406C18.0355 14.8345 18.0496 14.8322 18.0635 14.8339C18.0774 14.8356 18.0906 14.8412 18.1014 14.8501C18.2216 14.9491 18.3474 15.0482 18.4742 15.1425C18.4843 15.15 18.4924 15.16 18.4977 15.1714C18.5031 15.1828 18.5055 15.1954 18.5049 15.208C18.5042 15.2206 18.5005 15.2329 18.494 15.2437C18.4875 15.2545 18.4784 15.2636 18.4676 15.2701C17.8695 15.6194 17.2429 15.9176 16.5946 16.1615C16.5845 16.1653 16.5754 16.1712 16.5678 16.1789C16.5602 16.1865 16.5542 16.1956 16.5504 16.2057C16.5466 16.2158 16.5449 16.2265 16.5455 16.2373C16.5461 16.2481 16.549 16.2586 16.5539 16.2682C16.9143 16.9662 17.3258 17.631 17.7789 18.2614C17.7882 18.2744 17.8013 18.2841 17.8164 18.2893C17.8315 18.2944 17.8478 18.2946 17.8631 18.29C19.8241 17.6833 21.8126 16.7681 23.8654 15.2606C23.8742 15.2541 23.8816 15.2458 23.887 15.2363C23.8924 15.2268 23.8957 15.2163 23.8967 15.2054C24.3971 10.0284 23.0585 5.53146 20.3482 1.54496C20.3416 1.53201 20.3305 1.52196 20.317 1.51646ZM8.02 12.4779C6.8375 12.4779 5.8631 11.3922 5.8631 10.0589C5.8631 8.72566 6.8186 7.63996 8.0201 7.63996C9.2309 7.63996 10.1958 8.73516 10.1769 10.059C10.1769 11.3922 9.2214 12.4779 8.02 12.4779ZM15.9948 12.4779C14.8123 12.4779 13.8379 11.3922 13.8379 10.0589C13.8379 8.72566 14.7933 7.63996 15.9948 7.63996C17.2056 7.63996 18.1705 8.73516 18.1516 10.059C18.1516 11.3922 17.2056 12.4779 15.9948 12.4779Z" fill="#CBA6F7"/>
</svg>
