<svg width="24" height="18" viewBox="0 0 24 18" fill="none" xmlns="http://www.w3.org/2000/svg">
<path d="M23.498 3.18601C23.3624 2.67529 23.095 2.20915 22.7226 1.83428C22.3502 1.4594 21.8858 1.18895 21.376 1.05001C19.505 0.545014 12 0.545013 12 0.545013C12 0.545013 4.495 0.545014 2.623 1.05001C2.11341 1.1892 1.64929 1.45975 1.27708 1.8346C0.904861 2.20944 0.637591 2.67545 0.502 3.18601C0 5.07001 0 9.00001 0 9.00001C0 9.00001 0 12.93 0.502 14.814C0.637586 15.3247 0.904975 15.7909 1.27739 16.1658C1.64981 16.5406 2.11418 16.8111 2.624 16.95C4.495 17.455 12 17.455 12 17.455C12 17.455 19.505 17.455 21.377 16.95C21.8869 16.8112 22.3513 16.5407 22.7237 16.1659C23.0961 15.791 23.3635 15.3248 23.499 14.814C24 12.93 24 9.00001 24 9.00001C24 9.00001 24 5.07001 23.498 3.18601ZM9.545 12.568V5.43201L15.818 9.00001L9.545 12.568Z" fill="#CBA6F7"/>
</svg>
